<?xml version="1.0" encoding="UTF-8" standalone="no"?>
<svg
   width="561.711"
   height="396"
   viewBox="0 0 561.71099 396"
   role="img"
   artist="Katerina Limpitsouni"
   source="https://undraw.co/"
   version="1.1"
   id="svg1"
   sodipodi:docname="undraw_collaborative-writing_ir40 (1).svg"
   inkscape:export-filename="..\Desktop\project-react\motion\public\undraw_collaborative-writing.svg"
   inkscape:export-xdpi="96"
   inkscape:export-ydpi="96"
   xmlns:inkscape="http://www.inkscape.org/namespaces/inkscape"
   xmlns:sodipodi="http://sodipodi.sourceforge.net/DTD/sodipodi-0.dtd"
   xmlns="http://www.w3.org/2000/svg"
   xmlns:svg="http://www.w3.org/2000/svg">
  <defs
     id="defs1" />
  <sodipodi:namedview
     id="namedview1"
     pagecolor="#ffffff"
     bordercolor="#000000"
     borderopacity="0.25"
     inkscape:showpageshadow="2"
     inkscape:pageopacity="0.0"
     inkscape:pagecheckerboard="0"
     inkscape:deskcolor="#d1d1d1" />
  <g
     id="Group_603"
     data-name="Group 603"
     transform="translate(-722.289,-281)">
    <path
       id="Rectangle_1586-179"
       data-name="Rectangle 1586"
       d="m 8,0 h 380 a 8,8 0 0 1 8,8 V 362 H 0 V 8 A 8,8 0 0 1 8,0 Z"
       fill="#e6e6e6"
       style="fill:#ffffff"
       transform="translate(762,315)" />
    <path
       id="Rectangle_1587-180"
       data-name="Rectangle 1587"
       d="m 8,0 h 361 a 8,8 0 0 1 8,8 V 352 H 0 V 8 A 8,8 0 0 1 8,0 Z"
       fill="#fff"
       style="fill:#030712;fill-opacity:1"
       transform="translate(772,325)" />
    <path
       id="Path_8610-181"
       data-name="Path 8610"
       d="m 768.838,309.282 c 6.2,0 11.237,2.713 11.237,6.045 v 47.048 c 0,3.336 -5.041,6.045 -11.237,6.045 H 501.644 c -6.2,0 -11.237,-2.713 -11.237,-6.045 v -47.044 c 0,-3.336 5.041,-6.045 11.237,-6.045"
       fill="#d6d6e3"
       style="fill:#ececec"
       transform="translate(324.759,43.556)" />
    <path
       id="Path_8611-182"
       data-name="Path 8611"
       d="m 498.59,234.581 c -3.443,0 -6.242,1.508 -6.242,3.361 0,1.853 2.8,3.361 6.242,3.361 h 222.246 c 3.443,0 6.242,-1.508 6.242,-3.361 0,-1.853 -2.8,-3.361 -6.242,-3.361 z"
       fill="#f2f2f2"
       transform="translate(322.818,207.451)" />
    <path
       id="Path_8612-183"
       data-name="Path 8612"
       d="m 498.59,234.581 c -3.443,0 -6.242,1.508 -6.242,3.361 0,1.853 2.8,3.361 6.242,3.361 h 222.246 c 3.443,0 6.242,-1.508 6.242,-3.361 0,-1.853 -2.8,-3.361 -6.242,-3.361 z"
       fill="#f2f2f2"
       transform="translate(322.818,221.402)" />
    <path
       id="Path_8613-184"
       data-name="Path 8613"
       d="m 498.59,205.477 c -3.443,0 -6.242,1.228 -6.242,2.734 v 2.189 c 0,1.508 2.8,2.734 6.242,2.734 h 144.834 c 3.443,0 6.242,-1.228 6.242,-2.734 v -2.187 c 0,-1.508 -2.8,-2.734 -6.242,-2.734 z"
       fill="#d6d6e3"
       style="fill:#ffffff"
       transform="translate(322.818,272.399)" />
    <path
       id="Path_8614-185"
       data-name="Path 8614"
       d="m 498.59,234.581 c -3.443,0 -6.242,1.508 -6.242,3.361 0,1.853 2.8,3.361 6.242,3.361 h 222.246 c 3.443,0 6.242,-1.508 6.242,-3.361 0,-1.853 -2.8,-3.361 -6.242,-3.361 z"
       fill="#f2f2f2"
       transform="translate(322.818,258.18)" />
    <path
       id="Path_8615-186"
       data-name="Path 8615"
       d="m 498.59,234.581 c -3.443,0 -6.242,1.508 -6.242,3.361 0,1.853 2.8,3.361 6.242,3.361 h 222.246 c 3.443,0 6.242,-1.508 6.242,-3.361 0,-1.853 -2.8,-3.361 -6.242,-3.361 z"
       fill="#f2f2f2"
       transform="translate(322.818,272.131)" />
    <path
       id="Path_8616-187"
       data-name="Path 8616"
       d="m 498.59,205.477 c -3.443,0 -6.242,1.228 -6.242,2.734 v 2.189 c 0,1.508 2.8,2.734 6.242,2.734 h 144.834 c 3.443,0 6.242,-1.228 6.242,-2.734 v -2.187 c 0,-1.508 -2.8,-2.734 -6.242,-2.734 z"
       fill="#f2f2f2"
       transform="translate(322.818,323.128)" />
    <path
       id="Path_8617-188"
       data-name="Path 8617"
       d="m 498.59,234.581 c -3.443,0 -6.242,1.508 -6.242,3.361 0,1.853 2.8,3.361 6.242,3.361 h 222.246 c 3.443,0 6.242,-1.508 6.242,-3.361 0,-1.853 -2.8,-3.361 -6.242,-3.361 z"
       fill="#f2f2f2"
       transform="translate(322.818,308.908)" />
    <path
       id="Path_8618-189"
       data-name="Path 8618"
       d="m 498.59,234.581 c -3.443,0 -6.242,1.508 -6.242,3.361 0,1.853 2.8,3.361 6.242,3.361 h 222.246 c 3.443,0 6.242,-1.508 6.242,-3.361 0,-1.853 -2.8,-3.361 -6.242,-3.361 z"
       fill="#f2f2f2"
       transform="translate(322.818,322.859)" />
    <path
       id="Path_2409-190"
       data-name="Path 2409"
       d="m 814.221,409.739 a 1.716,1.716 0 0 1 -0.242,-0.018 1.646,1.646 0 0 1 -1.088,-0.649 L 802.7,395.407 a 0.411,0.411 0 0 0 -0.706,0.083 l -5.223,12.219 a 1.657,1.657 0 0 1 -3.127,-0.242 l -10.422,-40.34 a 1.657,1.657 0 0 1 2.459,-1.833 l 35.686,21.5 a 1.657,1.657 0 0 1 -0.665,3.064 l -13.2,1.53 a 0.411,0.411 0 0 0 -0.282,0.653 l 10.194,13.659 a 1.659,1.659 0 0 1 -0.337,2.319 l -1.866,1.391 a 1.645,1.645 0 0 1 -0.99,0.324 z"
       fill="#6c63ff"
       style="fill:#ffffff"
       transform="translate(309.569,34.747)" />
    <path
       id="Path_8619-191"
       data-name="Path 8619"
       d="m 8,0 h 82.284 a 8,8 0 0 1 8,8 v 15.921 a 8,8 0 0 1 -8,8 H 8 a 8,8 0 0 1 -8,-8 V 8 A 8,8 0 0 1 8,0 Z"
       fill="#6c63ff"
       style="fill:#ffffff"
       transform="translate(1118.205,445.393)" />
    <path
       id="Path_2409-2-192"
       data-name="Path 2409"
       d="m 791.126,409.739 a 1.716,1.716 0 0 0 0.242,-0.018 1.646,1.646 0 0 0 1.088,-0.649 l 10.186,-13.664 a 0.411,0.411 0 0 1 0.706,0.083 l 5.223,12.219 a 1.657,1.657 0 0 0 3.127,-0.242 l 10.422,-40.34 a 1.657,1.657 0 0 0 -2.459,-1.833 l -35.686,21.5 a 1.657,1.657 0 0 0 0.665,3.064 l 13.2,1.53 a 0.411,0.411 0 0 1 0.282,0.653 l -10.19,13.658 a 1.659,1.659 0 0 0 0.337,2.319 l 1.866,1.391 a 1.645,1.645 0 0 0 0.99,0.324 z"
       fill="#6c63ff"
       style="fill:#ffffff"
       transform="translate(23.863,112.82)" />
    <path
       id="Path_8620-193"
       data-name="Path 8620"
       d="M 90.284,0 H 8 A 8,8 0 0 0 0,8 v 15.921 a 8,8 0 0 0 8,8 h 82.284 a 8,8 0 0 0 8,-8 V 8 a 8,8 0 0 0 -8,-8 z"
       fill="#6c63ff"
       style="fill:#ffffff"
       transform="translate(722.289,523.466)" />
    <circle
       id="Ellipse_1289"
       data-name="Ellipse 1289"
       cx="14"
       cy="14"
       fill="#e6e6e6"
       style="fill:#ececec"
       transform="translate(1256,281)"
       r="14" />
    <circle
       id="Ellipse_1290"
       data-name="Ellipse 1290"
       cx="14"
       cy="14"
       fill="#d6d6e3"
       style="fill:#cccccc"
       transform="translate(1236,281)"
       r="14" />
    <circle
       id="Ellipse_1291"
       data-name="Ellipse 1291"
       cx="14"
       cy="14"
       fill="#6c63ff"
       style="fill:#999999"
       transform="translate(1216,281)"
       r="14" />
  </g>
</svg>
